<svg id="Capa_1" enable-background="new 0 0 480.003 480.003" height="512" viewBox="0 0 480.003 480.003" width="512" xmlns="http://www.w3.org/2000/svg"><g><path d="m159.983 480.002c-6.92.015-13.656-2.233-19.181-6.4l-128-96c-14.138-10.604-17.004-30.661-6.4-44.8 1.819-2.426 3.974-4.581 6.4-6.4l128-96c14.138-10.604 34.196-7.738 44.8 6.4s7.738 34.196-6.4 44.8l-51.199 38.4c76.424.209 149.755-30.166 203.647-84.354 54.187-53.892 84.562-127.223 84.353-203.646 0-17.673 14.327-32 32-32s32 14.327 32 32c.109 93.378-36.994 182.95-103.1 248.9-32.061 32.144-70.056 57.758-111.878 75.423-43.347 18.35-89.951 27.763-137.022 27.677l51.2 38.4c14.139 10.604 17.004 30.661 6.4 44.8-6.048 8.063-15.541 12.806-25.62 12.8zm0-239.992c-3.455-.004-6.818 1.117-9.58 3.193l-128 96c-7.069 5.302-8.502 15.331-3.2 22.4.91 1.213 1.987 2.29 3.2 3.2l128 96c7.069 5.302 17.098 3.869 22.4-3.2 5.29-7.072 3.859-17.092-3.2-22.4l-70.4-52.8c-3.535-2.65-4.253-7.664-1.602-11.2 1.511-2.016 3.883-3.202 6.402-3.201h24c44.93.085 89.416-8.898 130.792-26.411 39.924-16.863 76.195-41.315 106.8-72 63.105-62.95 98.52-148.454 98.408-237.589 0-8.837-7.163-16-16-16s-16 7.163-16 16c.22 80.67-31.842 158.075-89.04 214.961-56.886 57.198-134.291 89.26-214.96 89.039h-24c-4.418 0-8-3.582-8-8 0-2.518 1.186-4.889 3.2-6.4l70.4-52.8c7.069-5.297 8.505-15.322 3.208-22.39-3.027-4.039-7.782-6.413-12.828-6.402z"/></g></svg>