<svg id="Capa_1" enable-background="new 0 0 480.011 480.011" height="512" viewBox="0 0 480.011 480.011" width="512" xmlns="http://www.w3.org/2000/svg"><g><path d="m32 480.006c-17.673 0-32-14.327-32-32s14.327-32 32-32c76.426.209 149.759-30.166 203.653-84.354 54.189-53.891 84.565-127.222 84.356-203.646l-38.4 51.2c-10.604 14.138-30.661 17.004-44.8 6.4-14.138-10.604-17.004-30.662-6.4-44.8l96-128c10.604-14.138 30.661-17.004 44.8-6.4 2.426 1.819 4.581 3.974 6.4 6.4l96 128c10.604 14.138 7.738 34.196-6.4 44.8-14.139 10.604-34.196 7.738-44.8-6.4l-38.4-51.2c.088 47.071-9.325 93.676-27.675 137.023-17.665 41.822-43.28 79.817-75.424 111.877-65.953 66.108-155.529 103.211-248.91 103.1zm296.01-384c4.418 0 8 3.582 8 8v24c.22 80.67-31.843 158.075-89.042 214.96-56.889 57.199-134.296 89.261-214.968 89.04-8.837 0-16 7.163-16 16s7.163 16 16 16c89.139.113 174.647-35.304 237.6-98.412 30.685-30.605 55.137-66.876 72-106.8 17.513-41.375 26.496-85.859 26.411-130.788v-24c0-4.418 3.582-8 8-8 2.518 0 4.889 1.186 6.4 3.2l52.8 70.4c5.302 7.069 15.331 8.502 22.4 3.2s8.502-15.331 3.2-22.4l-96-128c-5.302-7.069-15.331-8.502-22.4-3.2-1.213.91-2.29 1.987-3.2 3.2l-96 128c-5.302 7.069-3.869 17.098 3.2 22.4s17.098 3.869 22.4-3.2l52.8-70.4c1.511-2.014 3.882-3.2 6.399-3.2z"/></g></svg>