<svg id="Capa_1" enable-background="new 0 0 480.003 480.003" height="512" viewBox="0 0 480.003 480.003" width="512" xmlns="http://www.w3.org/2000/svg"><g><path d="m32.001 480.003c-17.665-.02-31.98-14.335-32-32-.146-194.256 157.211-351.849 351.466-351.995h.533l-51.2-38.4c-14.142-10.599-17.013-30.656-6.414-44.798 10.6-14.142 30.656-17.013 44.798-6.414.005.004.011.008.016.012l128 96c14.138 10.604 17.004 30.662 6.4 44.8-1.819 2.426-3.974 4.581-6.4 6.4l-128 96c-5.525 4.166-12.26 6.411-19.18 6.395-17.673.011-32.009-14.307-32.02-31.98-.006-10.079 4.737-19.572 12.8-25.62l51.2-38.4c-159.058 0-288 128.942-288 288-.019 17.665-14.335 31.98-31.999 32zm320-368c-185.418-.149-335.851 150.041-336 335.46v.54c0 8.837 7.163 16 16 16s16-7.163 16-16c0-167.895 136.105-304 304-304h24c4.418 0 8 3.582 8 8 0 2.518-1.186 4.889-3.2 6.4l-70.4 52.8c-7.069 5.302-8.502 15.331-3.2 22.4s15.331 8.502 22.4 3.2l128-96c7.069-5.302 8.502-15.331 3.2-22.4-.91-1.213-1.987-2.29-3.2-3.2l-128-96c-7.069-5.302-17.098-3.869-22.4 3.2s-3.869 17.098 3.2 22.4l70.4 52.8c3.535 2.651 4.251 7.665 1.6 11.2-1.511 2.014-3.882 3.2-6.4 3.2z"/></g></svg>