<?xml version="1.0" encoding="iso-8859-1"?>
<!-- Generator: Adobe Illustrator 19.0.0, SVG Export Plug-In . SVG Version: 6.00 Build 0)  -->
<svg version="1.1" id="Capa_1" xmlns="http://www.w3.org/2000/svg" xmlns:xlink="http://www.w3.org/1999/xlink" x="0px" y="0px"
	 viewBox="0 0 470 470" style="enable-background:new 0 0 470 470;" xml:space="preserve">
<g>
	<path d="M468.992,231.244c-23.328-40.325-56.873-74.146-97.008-97.806C332.776,110.326,288.16,97.552,242.5,96.289V45
		c0-4.143-3.357-7.5-7.5-7.5c-4.142,0-7.5,3.357-7.5,7.5v51.289c-45.66,1.263-90.276,14.037-129.484,37.149
		c-40.135,23.66-73.68,57.48-97.008,97.806c-1.344,2.323-1.344,5.188,0,7.512c23.328,40.325,56.873,74.146,97.008,97.806
		c39.208,23.113,83.825,35.886,129.484,37.149V425c0,4.143,3.358,7.5,7.5,7.5c4.143,0,7.5-3.357,7.5-7.5v-51.289
		c45.66-1.263,90.276-14.037,129.484-37.149c40.135-23.66,73.68-57.48,97.008-97.806
		C470.336,236.433,470.336,233.567,468.992,231.244z M242.5,242.5h54.534c-3.423,28.476-26.058,51.111-54.534,54.534V242.5z
		 M227.5,297.034c-28.476-3.423-51.111-26.058-54.534-54.534H227.5V297.034z M172.966,227.5
		c3.423-28.476,26.058-51.111,54.534-54.534V227.5H172.966z M227.5,157.869c-36.758,3.547-66.083,32.873-69.631,69.631h-45.133
		c3.739-61.585,53.179-111.025,114.764-114.764V157.869z M157.869,242.5c3.547,36.757,32.873,66.083,69.631,69.631v45.133
		c-61.585-3.739-111.025-53.179-114.764-114.764H157.869z M242.5,312.131c36.757-3.547,66.083-32.873,69.631-69.631h45.133
		c-3.739,61.585-53.179,111.025-114.764,114.764V312.131z M312.128,227.5c-1.18-12.185-5.218-23.912-11.87-34.282
		c-2.237-3.486-6.876-4.502-10.362-2.263c-3.486,2.236-4.499,6.876-2.263,10.362c5.097,7.946,8.288,16.881,9.409,26.183H242.5
		v-54.541c9.302,1.121,18.237,4.311,26.183,9.408c3.486,2.236,8.125,1.224,10.362-2.263c2.236-3.486,1.224-8.126-2.263-10.362
		c-10.37-6.653-22.097-10.69-34.282-11.87v-45.136c61.585,3.739,111.025,53.179,114.764,114.764H312.128z M16.208,235
		c31.409-52.208,80.246-90.824,136.496-110.086c-31.619,23.697-52.732,60.677-54.997,102.586H45c-4.142,0-7.5,3.357-7.5,7.5
		s3.358,7.5,7.5,7.5h52.707c2.264,41.909,23.378,78.889,54.997,102.586C96.454,325.824,47.617,287.208,16.208,235z M317.296,345.086
		c31.619-23.697,52.733-60.677,54.997-102.586H425c4.143,0,7.5-3.357,7.5-7.5s-3.357-7.5-7.5-7.5h-52.707
		c-2.264-41.909-23.378-78.889-54.997-102.586c56.25,19.262,105.087,57.878,136.496,110.086
		C422.383,287.208,373.546,325.825,317.296,345.086z"/>
	<path d="M75,127.5c4.142,0,7.5-3.357,7.5-7.5V82.5H120c4.142,0,7.5-3.357,7.5-7.5s-3.358-7.5-7.5-7.5H75
		c-4.142,0-7.5,3.357-7.5,7.5v45C67.5,124.143,70.858,127.5,75,127.5z"/>
	<path d="M350,82.5h37.5V120c0,4.143,3.357,7.5,7.5,7.5s7.5-3.357,7.5-7.5V75c0-4.143-3.357-7.5-7.5-7.5h-45
		c-4.143,0-7.5,3.357-7.5,7.5S345.857,82.5,350,82.5z"/>
	<path d="M120,387.5H82.5V350c0-4.143-3.358-7.5-7.5-7.5s-7.5,3.357-7.5,7.5v45c0,4.143,3.358,7.5,7.5,7.5h45
		c4.142,0,7.5-3.357,7.5-7.5S124.142,387.5,120,387.5z"/>
	<path d="M395,342.5c-4.143,0-7.5,3.357-7.5,7.5v37.5H350c-4.143,0-7.5,3.357-7.5,7.5s3.357,7.5,7.5,7.5h45
		c4.143,0,7.5-3.357,7.5-7.5v-45C402.5,345.857,399.143,342.5,395,342.5z"/>
</g>
<g>
</g>
<g>
</g>
<g>
</g>
<g>
</g>
<g>
</g>
<g>
</g>
<g>
</g>
<g>
</g>
<g>
</g>
<g>
</g>
<g>
</g>
<g>
</g>
<g>
</g>
<g>
</g>
<g>
</g>
</svg>
