<svg id="Capa_1" enable-background="new 0 0 512 512" height="512" viewBox="0 0 512 512" width="512" xmlns="http://www.w3.org/2000/svg"><g><path d="m497 212h-18.565l-30.01-159.052c-5.789-30.68-32.652-52.948-63.873-52.948h-18.552c-8.284 0-15 6.716-15 15s6.716 15 15 15h18.552c16.812 0 31.276 11.99 34.393 28.511l28.96 153.489h-160.34c-4.981-3.504-10.564-6.2-16.564-7.904v-42.096c0-8.284-6.716-15-15-15s-15 6.716-15 15v42.096c-6 1.704-11.584 4.4-16.564 7.904h-160.342l28.96-153.489c3.117-16.52 17.582-28.511 34.393-28.511h18.552c8.284 0 15-6.716 15-15s-6.716-15-15-15h-18.552c-31.221 0-58.084 22.268-63.873 52.948l-30.009 159.052h-18.566c-8.284 0-15 6.716-15 15v60c0 8.284 6.716 15 15 15h51v57.814c-15.477 16.172-25 38.087-25 62.186 0 5.55.508 10.983 1.475 16.258l-24.67 8.979c-7.785 2.833-11.798 11.441-8.965 19.226 2.217 6.091 7.969 9.874 14.096 9.874 1.704 0 3.436-.292 5.129-.909l24.695-8.988c15.504 27.188 44.766 45.56 78.24 45.56 45.591 0 83.369-34.077 89.211-78.096 12.043-7.851 23.698-11.828 35.348-11.926.148.004.292.022.44.022s.293-.018.44-.022c11.65.098 23.305 4.076 35.348 11.927 5.845 44.019 43.622 78.095 89.213 78.095 33.474 0 62.736-18.372 78.24-45.56l24.694 8.988c1.694.617 3.426.909 5.13.909 6.126 0 11.88-3.783 14.097-9.874 2.833-7.785-1.181-16.392-8.965-19.226l-24.67-8.979c.965-5.275 1.474-10.708 1.474-16.258 0-24.099-9.522-46.015-25-62.186v-57.814h51c8.284 0 15-6.716 15-15v-60c0-8.284-6.716-15-15-15zm-181 147.814c-10.757 11.24-18.632 25.256-22.438 40.85-7.471-3.442-15.004-5.843-22.562-7.212v-83.548c6-1.704 11.584-4.4 16.564-7.904h28.436zm-120-.001v-57.813h28.436c4.981 3.504 10.564 6.2 16.564 7.904v83.548c-7.558 1.369-15.091 3.77-22.562 7.212-3.806-15.595-11.68-29.611-22.438-40.851zm85-102.813c0 13.785-11.215 25-25 25s-25-11.215-25-25 11.215-25 25-25 25 11.215 25 25zm-251-15h173.096c-1.355 4.772-2.096 9.8-2.096 15s.741 10.228 2.096 15h-173.096zm136 60v37.084c-10.764-4.561-22.593-7.084-35-7.084s-24.236 2.524-35 7.085v-37.085zm-35 180c-25.865 0-47.959-16.452-56.37-39.441-.005-.013-.007-.026-.012-.038-.002-.005-.004-.009-.006-.014-2.335-6.402-3.612-13.308-3.612-20.507 0-33.084 26.916-60 60-60s60 26.916 60 60-26.916 60-60 60zm250 0c-33.084 0-60-26.916-60-60s26.916-60 60-60 60 26.916 60 60c0 7.195-1.276 14.097-3.608 20.495-.003.009-.008.017-.011.026-.008.023-.013.046-.021.069-8.42 22.973-30.506 39.41-56.36 39.41zm35-142.916c-10.764-4.561-22.593-7.084-35-7.084s-24.236 2.524-35 7.084v-37.084h70zm66-67.084h-173.096c1.355-4.772 2.096-9.8 2.096-15s-.741-10.228-2.096-15h173.096z"/></g></svg>
