<svg id="Capa_1" enable-background="new 0 0 512 512" height="512" viewBox="0 0 512 512" width="512" xmlns="http://www.w3.org/2000/svg"><g><path d="m256.652 139.412c-13.12 0-25.888 3.533-37.12 10.235-1.672-.22-3.374-.345-5.105-.345-21.48 0-38.955 17.475-38.955 38.956 0 9.239 3.239 17.731 8.632 24.416.361 39.721 32.759 71.927 72.548 71.927 40.028 0 72.593-32.566 72.593-72.595s-32.565-72.594-72.593-72.594zm-66.184 48.845c0-13.211 10.747-23.959 23.958-23.959s23.958 10.748 23.958 23.959-10.747 23.959-23.958 23.959c-13.21.001-23.958-10.748-23.958-23.959zm66.184 81.347c-27.413 0-50.414-19.273-56.178-44.985 4.335 1.669 9.037 2.594 13.953 2.594 21.48 0 38.955-17.475 38.955-38.956 0-12.528-5.95-23.685-15.166-30.816 5.903-2 12.119-3.033 18.437-3.033 31.759 0 57.596 25.839 57.596 57.598-.001 31.76-25.839 57.598-57.597 57.598z"/><path d="m458.085 382.68h-11.121v-11.121c0-4.142-3.357-7.498-7.498-7.498s-7.498 3.357-7.498 7.498v11.121h-11.12c-4.142 0-7.498 3.357-7.498 7.498s3.357 7.498 7.498 7.498h11.12v11.093c0 4.142 3.357 7.498 7.498 7.498s7.498-3.357 7.498-7.498v-11.093h11.121c4.141 0 7.498-3.357 7.498-7.498s-3.357-7.498-7.498-7.498z"/><path d="m491.542 315.522v-26.318c0-8.839-7.191-16.03-16.028-16.03h-.083l-.608-1.805c8.549-9.278 16.514-19.126 23.7-29.325 17.969-25.367 17.969-42.5.004-67.893-31.301-44.26-74.303-75.88-127.834-94.038-4.308-7.35-9.354-14.931-14.447-22.4-1.305-1.915-2.497-3.662-3.511-5.184-1.021-1.539-3.734-5.626-8.798-5.626-5.054 0-7.767 4.071-8.792 5.616-1.02 1.532-2.211 3.28-3.518 5.194-2.405 3.528-4.799 7.081-7.112 10.622-21.723-3.896-44.733-5.895-68.515-5.895-74.576 0-177.188 19.38-242.525 111.709-17.967 25.395-17.966 42.528 0 67.891 31.573 44.637 75.06 79.333 125.761 100.34.939.388 1.91.573 2.867.573 2.942 0 5.734-1.743 6.93-4.63 1.585-3.826-.231-8.213-4.057-9.798-48.083-19.922-89.321-52.823-119.261-95.15-7.008-9.894-10.554-17.438-10.653-24.951.005-.11.017-.219.017-.33 0-3.189 3.119-7.55 9.539-13.334 31.267-28.192 75.069-49.53 125.253-62.061-14.367 21.272-22.348 46.871-22.348 72.871 0 70.844 57.635 128.481 128.477 128.481 70.843 0 128.478-57.637 128.478-128.481 0-21.894-5.543-43.241-16.063-62.217 2.693-2.017 5.135-4.4 7.201-7.172 44.965 12.898 83.521 33.087 111.769 58.579 6.365 5.737 9.491 10.063 9.559 13.226.036 7.661-3.518 15.308-10.669 25.403-5.246 7.445-10.93 14.682-16.959 21.632l-13.615-40.415c-3.055-9.104-9.115-14.543-16.21-14.55-.005 0-.009 0-.014 0-7.094 0-13.164 5.433-16.241 14.542l-19.733 58.575h-.083c-8.838 0-16.028 7.191-16.028 16.03v26.318c-5.395.997-9.881 4.582-12.137 9.418-36.929 16.687-78.08 25.518-119.254 25.518-27.456 0-54.636-3.82-80.787-11.355-3.979-1.142-8.134 1.15-9.281 5.13-1.146 3.979 1.15 8.135 5.13 9.281 27.501 7.923 56.078 11.94 84.939 11.94 40.426 0 80.857-8.085 117.676-23.453v106.33c0 9.245 7.521 16.766 16.765 16.766h98.053c9.245 0 16.766-7.521 16.766-16.766v-116.333c-.004-8.203-5.928-15.035-13.72-16.475zm-147.607-249.242c8.411 12.335 23.93 35.131 23.93 46.678 0 16.12-12.019 23.335-23.929 23.335-11.911 0-23.93-7.215-23.93-23.335 0-11.546 15.519-34.343 23.929-46.678zm-220.793 58.217c-30.825 9.664-58.052 22.413-81.362 38.027 61.598-69.704 149.081-85.087 214.22-85.087 20.772 0 40.906 1.578 60.034 4.659-5.207 9.124-9.158 17.836-10.511 25.47-16.444-1.714-33.065-2.587-49.523-2.587-46.186-.001-92.128 6.749-132.858 19.518zm246.339 81.075c0 62.576-50.908 113.485-113.481 113.485s-113.481-50.909-113.481-113.485c0-28.831 11.074-57.089 30.458-77.934 26.524-5.015 54.466-7.664 83.022-7.664 16.651 0 33.475.925 50.096 2.736 4.345 18.798 21.175 28.58 37.84 28.58 3.682 0 7.371-.483 10.933-1.43 9.567 16.944 14.613 36.077 14.613 55.712zm12.372-83.192c.65-2.927 1.008-6.064 1.008-9.421 0-4.076-.982-8.568-2.675-13.344 35.611 14.344 65.797 35.452 90.127 63.013-25.18-16.821-55.153-30.487-88.46-40.248zm55.592 97.014c.708-2.094 1.495-3.32 2.029-3.94.53.622 1.311 1.845 2.012 3.935l18.12 53.787h-40.279zm52.817 228.937c0 .959-.81 1.769-1.769 1.769h-98.053c-.959 0-1.768-.81-1.768-1.769v-116.334c0-.098.014-.194.03-.289.006-.037.016-.073.021-.11.187-.774.894-1.371 1.71-1.371l33.299.028h.007c4.138 0 7.494-3.353 7.498-7.491.004-4.142-3.351-7.501-7.491-7.505l-21.358-.018v-26.037c0-.551.482-1.033 1.032-1.033h66.599c.008 0 .016.002.025.002.008 0 .016-.002.024-.002h5.446c.559 0 1.032.473 1.032 1.033v26.027h-21.152c-4.142 0-7.498 3.357-7.498 7.498s3.357 7.498 7.498 7.498h33.1c.959 0 1.769.81 1.769 1.769v116.335z"/></g></svg>